#N canvas 833 25 823 803 12;
#X declare -lib Gem;
#X obj 175 61 declare -lib Gem;
#X obj 442 92 gemwin;
#X msg 432 58 create \, 1;
#X msg 512 59 0 \, destroy;
#X msg 599 58 dimen 400 400;
#X obj 105 189 oscparse;
#X obj 106 163 netreceive -u -b;
#X msg 150 130 listen 8000;
#X obj 151 103 loadbang;
#X floatatom 144 249 5 0 0 0 - - - 0;
#X floatatom 191 249 5 0 0 0 - - - 0;
#X floatatom 240 250 5 0 0 0 - - - 0;
#X floatatom 283 248 5 0 0 0 - - - 0;
#X obj 456 317 gemhead 50;
#X msg 362 374 draw line;
#X obj 246 131 s lb;
#X obj 363 222 r lb;
#X obj 633 199 gemhead 50;
#X msg 557 223 draw line;
#X obj 555 197 r lb;
#X obj 633 319 circle 0.5;
#X obj 658 259 + 1;
#X obj 632 286 translateXYZ;
#X obj 543 319 * 360;
#X msg 546 100 color 0 0 0 1;
#X obj 76 314 gemhead 50;
#X obj 76 389 square 0.5;
#X obj 282 351 gemhead 50;
#X obj 276 447 square 0.25;
#X obj 76 351 translateXYZ -1.75 -1.75 0;
#X obj 275 414 translateXYZ -1.75 1.75 0;
#X obj 458 345 translateXYZ 1.75 -1.75 0;
#X obj 456 379 rotateXYZ 0 0 0;
#X obj 464 413 circle;
#X obj 526 413 + 0.5;
#X obj 658 363 gemhead 50;
#X msg 673 452 alias 0;
#X msg 802 478 text \$1;
#X floatatom 757 465 5 0 0 0 - - - 0;
#X obj 657 498 text2d;
#X obj 674 419 r lb;
#X obj 807 400 r year;
#X obj 802 441 pack f;
#X obj 105 219 unpack symbol symbol f f f f f;
#X obj 330 238 s year;
#X obj 761 396 r lb;
#X msg 760 429 32;
#X connect 2 0 1 0;
#X connect 3 0 1 0;
#X connect 4 0 1 0;
#X connect 5 0 43 0;
#X connect 6 0 5 0;
#X connect 7 0 6 0;
#X connect 8 0 7 0;
#X connect 8 0 15 0;
#X connect 9 0 21 0;
#X connect 9 0 20 1;
#X connect 10 0 26 1;
#X connect 11 0 28 1;
#X connect 12 0 23 0;
#X connect 12 0 34 0;
#X connect 13 0 31 0;
#X connect 14 0 26 0;
#X connect 14 0 28 0;
#X connect 14 0 33 0;
#X connect 16 0 14 0;
#X connect 17 0 22 0;
#X connect 18 0 20 0;
#X connect 19 0 18 0;
#X connect 21 0 22 1;
#X connect 21 0 22 2;
#X connect 22 0 20 0;
#X connect 23 0 32 3;
#X connect 24 0 1 0;
#X connect 25 0 29 0;
#X connect 27 0 30 0;
#X connect 29 0 26 0;
#X connect 30 0 28 0;
#X connect 31 0 32 0;
#X connect 32 0 33 0;
#X connect 34 0 33 1;
#X connect 35 0 39 0;
#X connect 36 0 39 0;
#X connect 37 0 39 0;
#X connect 38 0 39 1;
#X connect 40 0 36 0;
#X connect 41 0 42 0;
#X connect 42 0 37 0;
#X connect 43 2 9 0;
#X connect 43 3 10 0;
#X connect 43 4 11 0;
#X connect 43 5 12 0;
#X connect 43 6 44 0;
#X connect 45 0 46 0;
#X connect 46 0 38 0;
